<?xml version="1.0" encoding="UTF-8"?>
<svg id="Layer_1" xmlns="http://www.w3.org/2000/svg" version="1.1" viewBox="0 0 1568.01 349.5">
  <!-- Generator: Adobe Illustrator 29.3.1, SVG Export Plug-In . SVG Version: 2.1.0 Build 151)  -->
  <defs>
    <style>
      .st0 {
        fill: #fff;
      }
    </style>
  </defs>
  <path class="st0" d="M252.5,283.93h65.11c3.13,0,6.04-1.59,7.73-4.22l32.78-51c.85-1.31,2.3-2.11,3.87-2.11h58.97c1.68,0,3.23-.92,4.03-2.39l20.43-37.39c1.67-3.06-.54-6.8-4.03-6.8h-63.17c-3.15,0-6.09,1.62-7.77,4.28l-25.36,40.16c-.84,1.33-2.31,2.14-3.89,2.14h-167.54c-1.58,0-3.04-.81-3.89-2.14l-25.36-40.16c-1.68-2.67-4.62-4.28-7.77-4.28h-63.17c-3.49,0-5.71,3.74-4.03,6.8l20.43,37.39c.81,1.47,2.35,2.39,4.03,2.39h58.97c1.56,0,3.02.8,3.87,2.11l32.78,51c1.69,2.63,4.6,4.22,7.73,4.22h55.24Z"/>
  <path class="st0" d="M393.18,147.62H121.77c-4.66,0-7.72-4.85-5.72-9.06l34.78-72.99h212.89l35.17,72.97c2.03,4.2-1.04,9.08-5.7,9.08"/>
  <g>
    <path class="st0" d="M630.68,92.9h-78.75c-36.91,0-51.28,17.47-51.28,62.3v39.1c0,44.83,14.38,62.3,51.28,62.3h78.75c2.29,0,6.13-.95,6.13-7.28v-22.28c0-6.34-3.84-7.28-6.13-7.28h-77.88c-15.49,0-20.99-4.36-20.99-28.87v-32.28c0-21.3,3.17-28.87,20.99-28.87h77.88c2.29,0,6.13-.95,6.13-7.28v-22.28c0-6.34-3.84-7.28-6.13-7.28Z"/>
    <path class="st0" d="M788.38,236.14v-60.7c0-35.14-11.91-48.21-43.93-48.21h-75.43c-1.27,0-5.43.46-5.43,6.37v20.01c0,5.91,4.16,6.37,5.43,6.37h72.98c13.32,0,16.97,3.76,16.97,17.49h-69.12c-19.94,0-29.23,10.69-29.23,33.65v10.91c0,24.87,8.2,34.56,29.23,34.56h83.3c10.32,0,15.23-3.06,15.23-20.47ZM697.19,224.99c-6.31,0-7.34-1.05-7.34-7.5v-4.77c0-6.22,1.83-7.27,7.34-7.27h61.77v14.32c0,5.22-1.46,5.22-3.15,5.22h-58.63Z"/>
    <path class="st0" d="M908.95,127.23h-49c-31.9,0-43.76,13.06-43.76,48.21v73.89c0,6.34,3.84,7.28,6.13,7.28h17.15c2.29,0,6.13-.95,6.13-7.28v-67.52c0-16.9,2.2-21.82,16.79-21.82h46.55c1.27,0,5.43-.46,5.43-6.37v-20.01c0-5.91-4.16-6.37-5.43-6.37Z"/>
    <path class="st0" d="M1022.89,249.32v-43.03l62.55-105.49c1.09-2.03,1.17-4.21.2-5.83-.79-1.32-2.17-2.08-3.79-2.08h-23.45c-2.74,0-4.52,1.11-6.17,3.86l-44.23,75.95-44.03-75.9c-1.44-2.78-3.24-3.91-6.2-3.91h-24.5c-1.66,0-3.08.79-3.9,2.16-.97,1.63-.92,3.78.18,5.82l61.99,105.41v43.03c0,5.37,3.26,7.28,6.31,7.28h18.73c3.05,0,6.31-1.91,6.31-7.28Z"/>
    <path class="st0" d="M1205.25,256.61c10.32,0,15.23-3.06,15.23-20.47v-60.7c0-35.14-11.91-48.21-43.93-48.21h-75.43c-1.27,0-5.43.46-5.43,6.37v20.01c0,5.91,4.16,6.37,5.43,6.37h72.98c13.32,0,16.97,3.76,16.97,17.49h-69.12c-19.94,0-29.23,10.69-29.23,33.65v10.91c0,24.87,8.2,34.56,29.23,34.56h83.3ZM1121.95,217.49v-4.77c0-6.22,1.83-7.27,7.34-7.27h61.77v14.32c0,5.22-1.46,5.22-3.15,5.22h-58.63c-6.31,0-7.34-1.05-7.34-7.5Z"/>
    <path class="st0" d="M1372.56,175.43c0-35.14-11.91-48.21-43.93-48.21h-75.43c-1.27,0-5.43.46-5.43,6.37v20.01c0,5.91,4.16,6.37,5.43,6.37h72.98c13.32,0,16.97,3.76,16.97,17.49h-69.12c-19.94,0-29.23,10.69-29.23,33.65v10.91c0,24.87,8.2,34.56,29.23,34.56h83.3c10.32,0,15.23-3.06,15.23-20.47v-60.7ZM1343.15,205.45v14.32c0,5.22-1.46,5.22-3.15,5.22h-58.63c-6.31,0-7.34-1.05-7.34-7.5v-4.77c0-6.22,1.83-7.27,7.34-7.27h61.77Z"/>
    <path class="st0" d="M1429.79,249.32v-67.52c0-16.9,2.2-21.82,16.79-21.82h46.55c1.27,0,5.43-.46,5.43-6.37v-20.01c0-5.91-4.16-6.37-5.43-6.37h-49c-31.9,0-43.76,13.06-43.76,48.21v73.89c0,6.34,3.84,7.28,6.13,7.28h17.15c2.29,0,6.13-.95,6.13-7.28Z"/>
  </g>
</svg>